<svg version="1" viewBox="0 0 163.4 47.86" height="48" width="163" xmlns="http://www.w3.org/2000/svg"><g fill="#fff"><path d="M21.51 45.62V34.104h6.366v.959h-5.352v4.067h5.163v.955h-5.163v5.535H21.51M32.65 44.98c2.044 0 2.434-1.724 2.34-3.396-1.326.046-4.104-.209-4.104 1.801 0 1.085.811 1.595 1.764 1.595zm2.34-5.008c-.093-1.308-.749-1.723-1.856-1.723-.983 0-1.794.303-1.92 1.388h-.998c.234-1.642 1.435-2.266 2.933-2.266 1.732 0 2.81.813 2.777 2.648v3.795c-.015.623.046 1.262.078 1.803h-.967l-.03-1.18h-.033l-.047.113c-.342.67-1.388 1.306-2.448 1.306-1.452 0-2.608-.907-2.608-2.471 0-1.085.641-1.914 1.578-2.313 1.045-.463 2.402-.303 3.541-.368v-.732M43.91 40.07c-.078-1.228-.843-1.819-2.138-1.819-1.435 0-2.325 1.53-2.325 3.35 0 1.835.89 3.381 2.325 3.381 1.218 0 2.06-.765 2.138-1.866h1.015c-.25 1.835-1.28 2.743-3.059 2.743-2.34 0-3.431-2.057-3.431-4.242 0-2.17 1.169-4.243 3.494-4.243 1.607 0 2.917.99 2.996 2.696H43.91M48.31 38.83h.031c.545-.989 1.435-1.451 2.449-1.451 2.559 0 2.763 2.312 2.763 3.237v5.009h-.938v-5.166c0-1.389-.779-2.203-2.058-2.203-1.544 0-2.247 1.325-2.247 2.759v4.61h-.936V34.109h.936v4.721M56.675 37.62h.935v8.006h-.935V37.62zm1.013-2.312h-1.091V34.11h1.09v1.198zM61.67 45.62h-.935v-6.205c0-.621-.047-1.257-.077-1.8h.966l.046 1.179.031.031c.547-.989 1.437-1.451 2.449-1.451 2.56 0 2.763 2.312 2.763 3.237v5.009h-.937v-5.166c0-1.389-.78-2.203-2.058-2.203-1.545 0-2.248 1.324-2.248 2.759v4.61M70.68 45.62v-7.13h-1.576v-.875h1.576v-1.708c0-1.37.546-1.993 1.886-1.993.299 0 .61.11.892.176v.764a3.626 3.626 0 0 0-.58-.063c-1.277 0-1.31.654-1.26 1.802v1.022h1.776v.875h-1.776v7.13h-.938M78.91 38.25c-1.888 0-2.635 1.881-2.635 3.365 0 1.482.747 3.366 2.635 3.366 1.889 0 2.639-1.883 2.639-3.366 0-1.484-.75-3.365-2.639-3.365zm3.652 3.365c0 2.105-1.156 4.242-3.652 4.242s-3.649-2.137-3.649-4.242 1.153-4.242 3.649-4.242 3.652 2.137 3.652 4.242M86.04 45.62h-.936v-6.205c.015-.621-.047-1.257-.077-1.8h.967l.046 1.179h.031c.281-.814.983-1.388 1.763-1.42.312-.015.625 0 .937.017v.924c-.187-.016-.39-.064-.579-.064-1.388 0-2.12 1.022-2.152 2.552v4.817M91.83 38.8l.03.031c.547-.988 1.436-1.451 2.451-1.451 1.233 0 2.199.703 2.541 1.756.578-.943 1.483-1.756 2.7-1.756 2.558 0 2.762 2.313 2.762 3.238v5.008h-.935V40.46c0-1.389-.782-2.202-2.06-2.202-1.544 0-2.247 1.325-2.247 2.76v4.608h-.936V40.46c0-1.389-.781-2.202-2.059-2.202-1.546 0-2.247 1.325-2.247 2.76v4.608h-.936v-6.205c0-.621-.049-1.257-.079-1.8h.969l.046 1.179M107.47 44.98c2.044 0 2.435-1.724 2.341-3.396-1.327.046-4.104-.209-4.104 1.801 0 1.085.814 1.595 1.763 1.595zm2.341-5.008c-.095-1.308-.747-1.723-1.857-1.723-.982 0-1.794.303-1.918 1.388h-.999c.233-1.642 1.434-2.266 2.934-2.266 1.731 0 2.806.813 2.775 2.648v3.795c-.015.623.049 1.262.079 1.803h-.969l-.031-1.18h-.031l-.047.113c-.343.67-1.386 1.306-2.45 1.306-1.45 0-2.603-.907-2.603-2.471 0-1.085.64-1.914 1.576-2.313 1.045-.463 2.402-.303 3.541-.368v-.732M114.46 38.49h-1.56v-.875h1.56v-1.707l.937-.414v2.121h1.778v.875h-1.778v5.361c-.016.733.36 1.132 1.077 1.132.278 0 .561-.017.811-.097v.83c-.295.079-.64.143-.951.143-1.982 0-1.874-1.291-1.874-2.375V38.49M119.613 37.62h.937v8.006h-.937V37.62zm1.015-2.312h-1.09V34.11h1.09v1.198zM126.76 38.25c-1.888 0-2.636 1.881-2.636 3.365 0 1.482.748 3.366 2.636 3.366s2.636-1.883 2.636-3.366c0-1.484-.749-3.365-2.636-3.365zm3.652 3.365c0 2.105-1.156 4.242-3.652 4.242s-3.651-2.137-3.651-4.242 1.155-4.242 3.651-4.242 3.652 2.137 3.652 4.242M133.89 45.62h-.935v-6.205c0-.621-.048-1.257-.079-1.8h.968l.046 1.179.031.031c.548-.989 1.436-1.451 2.45-1.451 2.559 0 2.761 2.312 2.761 3.237v5.009h-.935v-5.166c0-1.389-.78-2.203-2.06-2.203-1.546 0-2.247 1.324-2.247 2.759v4.61M147.82 40.97c-.107-1.549-.92-2.713-2.541-2.713-1.53 0-2.34 1.308-2.465 2.713h5.006zm-5.038.877c.032 1.705.795 3.142 2.714 3.142 1.109 0 2.031-.814 2.264-1.914h.983c-.484 1.914-1.656 2.79-3.543 2.79-2.34 0-3.431-2.058-3.431-4.243 0-2.17 1.17-4.242 3.493-4.242 2.622 0 3.573 1.961 3.573 4.467h-6.053M152.45 45.62h-.935v-6.205c0-.621-.045-1.257-.076-1.8h.966l.045 1.179.034.031c.545-.989 1.435-1.451 2.447-1.451 2.56 0 2.763 2.312 2.763 3.237v5.009h-.937v-5.166c0-1.389-.778-2.203-2.058-2.203-1.545 0-2.249 1.324-2.249 2.759v4.61"/><g><path d="M27.52 21.08c0-.429-.074-.808-.296-1.06-.247-.278-.642-.454-1.283-.454-.691 0-1.109.404-1.109 1.135 0 .934 1.898.883 4.833 1.815 1.481.48 2.491 1.413 2.491 3.48 0 3.354-3.082 4.21-5.919 4.21-3.033 0-5.993-.629-5.968-4.487h4.44c-.075.378.048.807.32 1.135.272.327.665.581 1.11.581.912 0 1.577-.354 1.577-1.161 0-2.244-7.325-.908-7.325-5.498 0-3.125 3.256-3.984 5.723-3.984 2.935 0 5.648.784 5.846 4.288h-4.44"/></g><g><path d="M42.54 21.61c0-.631-.099-1.135-.369-1.487-.272-.354-.741-.557-1.456-.557-1.703 0-1.801 2.623-1.801 3.934s.098 3.935 1.801 3.935c1.629-.127 1.825-1.412 1.825-2.547h4.686c0 1.788-.765 3.102-1.924 3.983-1.183.858-2.762 1.287-4.39 1.337-4.687 0-6.808-2.32-6.808-6.708 0-4.587 3.083-6.707 6.808-6.707 3.132-.05 6.092 1.212 6.314 4.817H42.54"/></g><g><path d="M49.76 29.83V11.625h4.686v6.935c1.06-1.26 2.294-1.766 3.873-1.766 2.663 0 4.636 1.766 4.636 4.565v8.471h-4.686v-7.438c-.049-1.236-.345-2.572-1.802-2.572-2.317 0-2.02 2.597-2.02 2.749v7.261H49.76"/></g><g><path d="M68.68 29.83l-3.774-12.658h4.736l1.998 8.977h.05l2.17-8.977h5.179l2.147 8.927h.048l2.173-8.927h4.143L83.652 29.83h-5.178l-2.245-8.824h-.05L73.76 29.83H68.68"/></g><g><path d="M97.56 21.88c0-.679-.198-1.361-.568-1.891-.368-.528-.912-.858-1.627-.805-1.626.075-2.022 1.26-2.146 2.696h4.341zm-4.44 2.571c-.024 1.641.395 3.053 2.146 3.053 1.308 0 2.121-.632 2.294-1.815h4.341c-.148 1.638-1.158 2.823-2.343 3.53-1.086.705-2.467.982-3.92.982-4.958 0-6.933-2.167-6.933-7.135 0-4.01 2.936-6.28 6.66-6.28 5.034 0 6.636 2.95 6.636 7.665H93.12"/></g><g><path d="M109.406 29.83h-4.686V17.172h4.686V29.83zm.026-14.826h-4.737v-3.38h4.737v3.38z"/></g><g><path d="M113.89 17.17v-1.918l4.686-1.815v3.733h2.713v3.025h-2.713v5.017c0 .328-.197 1.968.889 1.968.615 0 1.256 0 1.8-.076v2.85a12.808 12.808 0 0 1-2.516.251c-3.183 0-5.107-.453-4.859-4.338v-5.672h-2.416V17.17h2.416"/></g><g><path d="M123.46 20.19v-3.025h10.952v3.025l-6.512 6.606h6.809v3.025h-11.497v-3.025l6.414-6.606h-6.166"/></g><g><path d="M145.51 21.88c0-.679-.198-1.361-.566-1.891-.371-.528-.914-.858-1.629-.805-1.626.075-2.024 1.26-2.147 2.696h4.342zm-4.441 2.571c-.025 1.641.395 3.053 2.147 3.053 1.306 0 2.121-.632 2.294-1.815h4.341c-.149 1.638-1.16 2.823-2.344 3.53-1.083.705-2.465.982-3.922.982-4.956 0-6.93-2.167-6.93-7.135 0-4.01 2.936-6.28 6.66-6.28 5.032 0 6.636 2.95 6.636 7.665h-8.882"/></g><g><path d="M157.2 19.54h.046c.545-2.093 2.073-2.799 4.148-2.75v4.061c-.347-.025-.668-.025-.989-.025-2.441.025-3.28 1.513-3.205 3.933v5.067h-4.686v-9.404c0-1.135-.027-1.89-.149-3.252h4.76l.075 2.37"/></g><g><path d="M7.94 31.63c-1.193.42-3.498.247-4.59-1.019-.509-.59-.856-1.151-1.124-2.207a7.873 7.873 0 0 1 .005-3.767c.139-.568.345-1.2.633-1.905 1.598-3.906 7.642-9.605 20.716-14.043 8.848-3.007 22.094-6.157 38.192-6.608 5.233-.146 10.785-.135 16.563.426 0 0 2.109.02 2.056 1.18-.025.557-.481 1.037-1.977.97 0 0-11.494-1.026-25.534.814C42.221 6.87 32.154 8.86 21.515 13.657c-14.264 6.43-14.204 12.84-13.784 15.68.323 1.59 1.061 1.994.209 2.293"/></g></g></svg>